<svg width="150" height="150" viewBox="0 0 150 150" fill="none" xmlns="http://www.w3.org/2000/svg">
<path fill-rule="evenodd" clip-rule="evenodd" d="M125.7 9.23778C125.557 8.63778 125.502 8.09578 125.536 7.62778H125.535C125.553 7.38078 125.595 7.16278 125.655 6.97078C125.453 6.97378 125.23 6.95378 124.987 6.90378C124.525 6.80678 124.015 6.60478 123.475 6.30178C123.137 6.11378 122.797 5.88978 122.479 5.65178L121.769 6.18278L125.345 10.8998L126.055 10.3678C125.912 9.99878 125.79 9.61178 125.7 9.23778ZM129.445 1.10978C129.233 1.23978 129.159 1.50678 129.28 1.70678V1.70578C129.535 2.12978 129.484 2.66578 129.168 3.06578C128.661 2.76549 128.077 2.61954 127.488 2.64578C127.544 2.82406 127.593 3.00416 127.637 3.18578C127.78 3.78578 127.835 4.32678 127.802 4.79578C127.784 5.04278 127.742 5.25978 127.682 5.45278C127.907 5.45007 128.131 5.47255 128.35 5.51978C128.813 5.61678 129.322 5.81878 129.862 6.12078C130.026 6.21209 130.187 6.30881 130.344 6.41078C130.53 5.84778 130.553 5.24878 130.4 4.69078C130.874 4.49878 131.407 4.59878 131.746 4.95878C131.906 5.12978 132.185 5.13278 132.369 4.96578C132.552 4.79878 132.572 4.52578 132.412 4.35578C131.818 3.72378 130.877 3.55878 130.052 3.91778C129.982 3.81051 129.904 3.70826 129.82 3.61178C130.394 2.92278 130.494 1.97778 130.047 1.23678C129.926 1.03678 129.657 0.979777 129.445 1.10978ZM121.072 6.75278C120.853 6.97478 120.669 7.22078 120.523 7.48178L123.746 11.7318C124.045 11.6631 124.333 11.5545 124.602 11.4088L121.072 6.75278ZM122.666 11.7958L120.163 8.49578C120.048 9.12609 120.149 9.77671 120.449 10.3428L120.433 10.3528L119.784 10.8388C119.585 10.9878 119.539 11.2588 119.68 11.4448C119.821 11.6308 120.096 11.6618 120.295 11.5128L120.944 11.0268L120.959 11.0148C121.425 11.4575 122.026 11.7323 122.666 11.7958ZM123.946 5.54678C124.707 5.97278 125.755 6.37578 126.417 5.87978C127.079 5.38478 126.978 4.27278 126.776 3.42778C126.563 2.53778 126.135 1.54578 125.733 1.01578C124.902 -0.0802236 123.366 -0.328224 122.309 0.462776C121.253 1.25378 121.069 2.78978 121.901 3.88578C122.302 4.41578 123.144 5.09878 123.946 5.54678ZM131.027 11.9598C132.084 11.1688 132.267 9.63378 131.437 8.53778C131.035 8.00778 130.194 7.32478 129.391 6.87578C128.63 6.45078 127.582 6.04678 126.92 6.54278C126.258 7.03878 126.359 8.15078 126.561 8.99578C126.774 9.88578 127.202 10.8778 127.604 11.4078C128.435 12.5038 129.971 12.7518 131.027 11.9598ZM111.446 11.311C110.971 11.2806 110.501 11.2663 110.035 11.2672L110.034 10.5172C110.516 10.5162 111.002 10.5311 111.494 10.5625L111.446 11.311ZM108.624 11.3174C108.151 11.3501 107.682 11.3986 107.22 11.462L107.118 10.7189C107.597 10.6533 108.082 10.6031 108.572 10.5691L108.624 11.3174ZM114.243 11.6711C113.775 11.5806 113.31 11.5061 112.85 11.4467L112.946 10.7028C113.422 10.7642 113.902 10.8413 114.385 10.9346L114.243 11.6711ZM105.828 11.7C105.364 11.7952 104.907 11.9053 104.455 12.0293L104.256 11.306C104.724 11.1778 105.197 11.0639 105.677 10.9654L105.828 11.7ZM116.312 12.1673C116.081 12.101 115.851 12.0387 115.621 11.9801L115.807 11.2535C116.043 11.3138 116.28 11.3781 116.518 11.4463L116.312 12.1673ZM103.105 12.4462C102.658 12.5999 102.217 12.767 101.783 12.9466L101.496 12.2536C101.944 12.0682 102.399 11.8957 102.861 11.737L103.105 12.4462ZM100.492 13.5255C100.066 13.7314 99.6474 13.9491 99.2352 14.1777L98.8714 13.5218C99.2955 13.2866 99.7268 13.0625 100.165 12.8504L100.492 13.5255ZM98.0148 14.8976C97.6137 15.1487 97.2195 15.4098 96.8324 15.6801L96.403 15.0651C96.8001 14.7879 97.2048 14.5198 97.6169 14.2619L98.0148 14.8976ZM95.6888 16.5199C95.3133 16.8096 94.9452 17.1075 94.5847 17.4125L94.1002 16.84C94.4691 16.5278 94.846 16.2228 95.2307 15.9261L95.6888 16.5199ZM93.5204 18.3535C93.1709 18.6761 92.8294 19.005 92.4959 19.3391L91.965 18.8094C92.3055 18.4681 92.6545 18.1321 93.0117 17.8024L93.5204 18.3535ZM91.5115 20.3658C91.188 20.7166 90.8732 21.0718 90.5672 21.4303L89.9968 20.9434C90.3089 20.5778 90.63 20.2154 90.9601 19.8574L91.5115 20.3658ZM89.6634 22.5301C89.3661 22.9058 89.0784 23.2838 88.8005 23.6627L88.1957 23.2192C88.4789 22.833 88.7722 22.4477 89.0752 22.0647L89.6634 22.5301ZM87.9795 24.8261C87.7093 25.2243 87.4501 25.6221 87.202 26.0182L86.5664 25.6201C86.8193 25.2163 87.0835 24.8107 87.359 24.4049L87.9795 24.8261ZM86.4703 27.237C86.2294 27.6562 86.0016 28.0716 85.7873 28.4814L85.1227 28.1339C85.3417 27.7151 85.5742 27.291 85.82 26.8633L86.4703 27.237ZM85.1541 29.7582C84.9464 30.2012 84.756 30.6348 84.5831 31.0565L83.8892 30.772C84.0669 30.3385 84.2623 29.8936 84.475 29.4399L85.1541 29.7582ZM84.0842 32.3795C84.0064 32.6067 83.9346 32.8289 83.8689 33.0456C83.8009 33.2699 83.7351 33.4903 83.6714 33.707L82.9518 33.4956C83.0161 33.2767 83.0825 33.0542 83.1511 32.828C83.2196 32.6024 83.2941 32.3717 83.3746 32.1365L84.0842 32.3795ZM83.2971 35.0297C83.1725 35.4888 83.0588 35.9305 82.9555 36.3566L82.2266 36.18C82.3316 35.7466 82.4471 35.2984 82.5733 34.8333L83.2971 35.0297ZM82.6558 37.6908C82.5603 38.1555 82.4788 38.6016 82.4105 39.0322L81.6698 38.9148C81.7399 38.472 81.8235 38.0148 81.9211 37.5399L82.6558 37.6908ZM82.2351 40.3784C82.1885 40.8436 82.1589 41.2928 82.1453 41.731L81.3957 41.7078C81.4098 41.2516 81.4406 40.7852 81.4889 40.3036L82.2351 40.3784ZM95.0934 41.1877C94.6157 41.171 94.1177 41.1624 93.6027 41.164L93.6004 40.414C94.1252 40.4124 94.6327 40.4211 95.1195 40.4381L95.0934 41.1877ZM92.1115 41.197C91.626 41.2171 91.1294 41.2468 90.6237 41.2875L90.5635 40.54C91.0792 40.4984 91.5857 40.4681 92.0806 40.4477L92.1115 41.197ZM97.3194 41.3311C97.0818 41.3085 96.8352 41.2875 96.5801 41.2685L96.6357 40.5206C96.8959 40.5399 97.1478 40.5614 97.3905 40.5845C97.6203 40.6064 97.8555 40.6335 98.0954 40.6658L97.9952 41.4091C97.7646 41.378 97.5391 41.352 97.3194 41.3311ZM89.1432 41.437C88.6571 41.4962 88.1652 41.5662 87.6691 41.6483L87.5467 40.9083C88.0537 40.8244 88.5563 40.7529 89.0526 40.6925L89.1432 41.437ZM100.675 41.9553C100.223 41.8334 99.777 41.728 99.3419 41.6389L99.4925 40.9041C99.9427 40.9964 100.403 41.1053 100.87 41.2311L100.675 41.9553ZM86.2068 41.924C85.7264 42.026 85.244 42.1401 84.761 42.2672L84.5701 41.542C85.0652 41.4116 85.5593 41.2948 86.051 41.1904L86.2068 41.924ZM103.272 42.8232C102.844 42.6513 102.415 42.4939 101.987 42.3509L102.224 41.6395C102.666 41.7871 103.11 41.9497 103.551 42.1273L103.272 42.8232ZM82.155 43.0876C82.5466 42.9427 82.9398 42.8077 83.3337 42.682L83.1058 41.9675C82.625 42.1208 82.1449 42.2879 81.6668 42.4697L81.9041 43.0934L81.4055 43.1161C81.4271 43.5889 81.4669 44.0549 81.5239 44.5204L82.2684 44.4292C82.2138 43.9838 82.1757 43.5387 82.155 43.0876ZM105.737 44.0038C105.341 43.7796 104.935 43.5695 104.525 43.3733L104.848 42.6965C105.273 42.8998 105.694 43.1179 106.106 43.351L105.737 44.0038ZM80.5626 43.7378C80.1146 43.9388 79.6703 44.1541 79.2311 44.3848L78.8824 43.7207C79.3358 43.4827 79.7941 43.2606 80.2557 43.0535L80.5626 43.7378ZM107.993 45.5244C107.642 45.2416 107.276 44.9732 106.898 44.719L107.316 44.0964C107.711 44.362 108.095 44.6433 108.464 44.9406L107.993 45.5244ZM77.9428 45.1152C77.5251 45.3705 77.1134 45.6412 76.7089 45.9281L76.275 45.3163C76.6938 45.0193 77.1197 44.7393 77.5516 44.4753L77.9428 45.1152ZM82.4794 45.7677C82.5626 46.203 82.6602 46.6445 82.7715 47.0979L82.0431 47.2766C81.9292 46.8125 81.8287 46.3581 81.7428 45.9084L82.4794 45.7677ZM109.909 47.4248C109.629 47.0767 109.327 46.7436 109.004 46.4252L109.531 45.8915C109.873 46.2287 110.195 46.5832 110.494 46.9552L109.909 47.4248ZM75.5336 46.8253C75.1567 47.135 74.7875 47.4605 74.4274 47.8028L73.9107 47.2592C74.2842 46.9042 74.6669 46.5667 75.0576 46.2458L75.5336 46.8253ZM111.291 49.7119C111.117 49.3 110.912 48.9037 110.681 48.5228L111.322 48.1334C111.571 48.544 111.792 48.9725 111.982 49.4191L111.291 49.7119ZM73.395 48.8586C73.0676 49.2189 72.7494 49.5953 72.4413 49.9885L71.8509 49.526C72.1703 49.1183 72.5003 48.7279 72.84 48.3542L73.395 48.8586ZM83.1225 48.4181C83.243 48.8427 83.3735 49.2803 83.5135 49.7348L82.7967 49.9556C82.6555 49.4971 82.5234 49.054 82.401 48.6229L83.1225 48.4181ZM71.574 51.1815C71.4368 51.3851 71.3022 51.5926 71.1702 51.8043C71.0444 52.0058 70.9217 52.2084 70.8018 52.4118L70.1555 52.0313C70.2786 51.8223 70.4047 51.6143 70.5338 51.4073C70.6705 51.1882 70.81 50.9733 70.9521 50.7624L71.574 51.1815ZM111.945 52.2884C111.901 51.8356 111.824 51.3982 111.717 50.9758L112.444 50.7915C112.561 51.2505 112.644 51.7254 112.692 52.2161L111.945 52.2884ZM83.9278 51.0489C83.9968 51.2636 84.0674 51.4823 84.1397 51.7051C84.2133 51.9319 84.2907 52.1555 84.3721 52.376L83.6685 52.6357C83.5836 52.4057 83.5029 52.1727 83.4263 51.9365C83.3538 51.7132 83.283 51.4938 83.2137 51.2782L83.9278 51.0489ZM70.1133 53.654C69.8941 54.0754 69.687 54.5009 69.492 54.9304L68.8091 54.6203C69.0096 54.1786 69.2226 53.7411 69.448 53.3078L70.1133 53.654ZM111.828 54.9615C111.908 54.5026 111.957 54.0571 111.977 53.6248L112.726 53.6595C112.705 54.1247 112.652 54.6019 112.566 55.0913L111.828 54.9615ZM84.9177 53.6835C85.1196 54.1148 85.3384 54.5326 85.5739 54.937L84.9258 55.3145C84.6788 54.8904 84.4497 54.4527 84.2385 54.0016L84.9177 53.6835ZM68.9408 56.238C68.7689 56.6792 68.6094 57.1244 68.4621 57.5738L67.7494 57.3403C67.9009 56.8778 68.0651 56.4196 68.242 55.9657L68.9408 56.238ZM86.3411 56.1247C86.615 56.5083 86.9065 56.8785 87.2154 57.2351L86.6485 57.7261C86.3242 57.3518 86.0183 56.9633 85.7307 56.5605L86.3411 56.1247ZM111.312 56.924C111.388 56.7043 111.457 56.4872 111.52 56.2729L112.24 56.4832C112.173 56.7096 112.1 56.9384 112.02 57.1696C111.943 57.3917 111.863 57.6088 111.778 57.8209L111.081 57.5435C111.162 57.3423 111.238 57.1358 111.312 56.924ZM88.1898 58.2597C88.5274 58.5836 88.8821 58.8945 89.2539 59.1926L88.7847 59.7778C88.3959 59.4661 88.0246 59.1405 87.6706 58.801L88.1898 58.2597ZM68.0576 58.9339C67.9354 59.3899 67.8255 59.85 67.7278 60.3144L66.9939 60.1599C67.0944 59.6824 67.2074 59.209 67.3331 58.7399L68.0576 58.9339ZM109.855 59.8602C110.098 59.5125 110.324 59.1394 110.533 58.7405L111.197 59.0892C110.974 59.5142 110.732 59.9142 110.471 60.289L109.855 59.8602ZM90.396 60.0317C90.7829 60.292 91.1855 60.5407 91.6039 60.7777L91.2343 61.4303C90.7996 61.1841 90.3806 60.9253 89.9772 60.6539L90.396 60.0317ZM108.082 61.7432C108.42 61.4816 108.739 61.1912 109.039 60.8718L109.586 61.3848C109.259 61.7326 108.911 62.0499 108.541 62.3364L108.082 61.7432ZM93.5044 61.7259C93.2881 61.6311 93.0752 61.5338 92.8658 61.434L92.5429 62.1109C92.763 62.2159 92.9866 62.318 93.2137 62.4174L93.2236 62.4217L93.2338 62.4255C93.4509 62.5059 93.6663 62.5837 93.88 62.6589L94.1291 61.9515C93.9226 61.8788 93.7144 61.8036 93.5044 61.7259ZM67.4727 61.7111C67.4005 62.1765 67.34 62.646 67.2914 63.1195L66.5453 63.043C66.5952 62.5567 66.6573 62.0743 66.7316 61.596L67.4727 61.7111ZM95.4016 62.3752C95.8396 62.5124 96.269 62.6375 96.6897 62.7507L96.4949 63.4749C96.0638 63.359 95.6247 63.231 95.1775 63.091L95.4016 62.3752ZM105.813 62.973C106.228 62.8258 106.623 62.6507 106.998 62.4482L107.355 63.108C106.945 63.3295 106.514 63.5201 106.063 63.6799L105.813 62.973ZM97.9889 63.0681C98.4358 63.1658 98.872 63.2487 99.2975 63.317L99.1787 64.0575C98.7386 63.9869 98.2886 63.9013 97.8287 63.8008L97.9889 63.0681ZM103.26 63.5076C103.71 63.4687 104.142 63.4064 104.557 63.3209L104.708 64.0555C104.263 64.1472 103.802 64.2135 103.325 64.2548L103.26 63.5076ZM100.619 63.4851C101.074 63.527 101.515 63.5503 101.943 63.5551L101.934 64.305C101.485 64.3 101.024 64.2756 100.55 64.2319L100.619 63.4851ZM67.1821 64.5359C67.1576 65.0056 67.1443 65.4793 67.1424 65.9568L66.3924 65.9538C66.3944 65.4644 66.408 64.9787 66.4331 64.4968L67.1821 64.5359ZM67.1695 67.3792C67.1891 67.8493 67.2194 68.323 67.2603 68.8005L66.513 68.8645C66.4712 68.3763 66.4403 67.8917 66.4202 67.4106L67.1695 67.3792ZM67.4112 70.2158C67.4705 70.6823 67.5397 71.1522 67.6188 71.6255L66.879 71.7491C66.7984 71.2663 66.7278 70.7868 66.6672 70.3105L67.4112 70.2158ZM67.8799 73.0285C67.9743 73.4892 68.0778 73.953 68.1904 74.4201L67.4613 74.5958C67.3467 74.1206 67.2413 73.6484 67.1452 73.1791L67.8799 73.0285ZM68.5476 75.8026C68.6106 76.0312 68.6757 76.2605 68.7429 76.4906L68.023 76.701C67.9547 76.4672 67.8886 76.2342 67.8246 76.0018L68.5476 75.8026ZM8.742 81.9858L53.15 67.1058L67.396 82.5078L23.201 97.3168L8.741 81.9868L8.742 81.9858ZM23.204 98.9558L67.586 113.607L50.127 132.095L6 117.483L23.204 98.9568V98.9558ZM69.754 113.754L114.272 98.8888L124.271 117.376L79.881 132.078L69.753 113.754H69.754ZM69.458 116.429L79.502 133.862L109.39 123.761V134.585L69.458 149.442V116.429ZM68.048 115.332L68.014 149.452L23.9 134.821L23.933 125.014L50.485 133.68L68.048 115.332ZM81.248 67.1068L125.794 81.9888L114.343 97.2618L83.196 86.9418L69.99 82.5668L81.248 67.1068ZM67.975 85.3888V110.636L30.015 98.0658L67.975 85.3888ZM69.555 85.3848L107.788 98.0658L69.555 110.631V85.3848Z" fill="#D1D1D1"/>
</svg>
